/* XPM */
static char *myslq_xpm[] = {
/* width height ncolors chars_per_pixel */
"129 68 33 2",
/* colors */
"AA c #FFFFFFFFFFFF",
"BA c #42428F8FACAC",
"CA c #F2F2C7C78D8D",
"DA c #909091919494",
"EA c #EAEAEAEAEBEB",
"FA c #161675759999",
"GA c #6F6F70707373",
"HA c #DADADADADBDB",
"IA c #A8A8A9A9AAAA",
"JA c #ECECA8A85050",
"KA c #F6F6D9D9B1B1",
"LA c #E7E798982F2F",
"MA c #EEEEB6B66A6A",
"NA c #8282B5B5C8C8",
"OA c #F9F9E3E3C6C6",
"PA c #C0C0DADAE3E3",
"AB c #B8B8B9B9BABA",
"BB c #6060A1A1B9B9",
"CB c #F0F0F6F6F8F8",
"DB c #E0E0EDEDF1F1",
"EB c #A0A0C7C7D5D5",
"FB c #F7F7F6F6F6F6",
"GB c #7070AAAAC0C0",
"HB c #D0D0E3E3EAEA",
"IB c #30308484A4A4",
"JB c #FBFBEDEDDADA",
"KB c #C9C9C9C9CACA",
"LB c #F0F0C0C07F7F",
"MB c #7F7F80808383",
"NB c #B0B0D0D0DCDC",
"OB c #E5E58E8E1A1A",
"PB c #000068688F8F",
"AC c #000000000000",
/* pixels */
"ACACACACACACACACACACACACACACACACACACACACACACACACACACACACACACACACACACACACACACACACACACACACACACACACACACACACACACACACACACACACACACACACACACACACACACACACACACACACACACACACACACACACACACACACACACACACACACACACACACACACACACACACACACACACACACACACACACACACACACACACACACACACACACACACAC",
"ACACACACACACACACACACACACACACACACACACACACACACACACACACACACACACACACACACACACACACACACACACACACACACACACACACACACACACACACACACACACACACACACACACACACACACACACACACACACACACACACACACACACACACACACACACACACACACACACACACACACACACACACACACACACACACACACACACACACACACACACACACACACACACACACAC",
"ACACAAAAAAAAAAAAAAAAAAAAAAAAAAAAAAAAAAAAAAAAAAAAAAAAAAAAAAAAAAAAAAAAAAAAAAAAAAAAAAAAAAAAAAAAAAAAAAAAAAAAAAAAAAAAAAAAAAAAAAAAAAAAAAAAAAAAAAAAAAAAAAAAAAAAAAAAAAAAEBFAPBPBFANACBAAAAAAAAAAAAAAAAAAAAAAAAAAAAAAAAAAAAAAAAAAAAAAAAAAAAAAAAAAAAAAAAAAAAAAAAAAAAAAAAACAC",
"ACACAAAAAAAAAAAAAAAAAAAAAAAAAAAAAAAAAAAAAAAAAAAAAAAAAAAAAAAAAAAAAAAAAAAAAAAAAAAAAAAAAAAAAAAAAAAAAAAAAAAAAAAAAAAAAAAAAAAAAAAAAAAAAAAAAAAAAAAAAAAAAAAAAAAAAAAAAAAAFAPBBAPBPBPBFANAAAAAAAAAAAAAAAAAAAAAAAAAAAAAAAAAAAAAAAAAAAAAAAAAAAAAAAAAAAAAAAAAAAAAAAAAAAAAAAACAC",
"ACACAAAAAAAAAAAAAAAAAAAAAAAAAAAAAAAAAAAAAAAAAAAAAAAAAAAAAAAAAAAAAAAAAAAAAAAAAAAAAAAAAAAAAAAAAAAAAAAAAAAAAAAAAAAAAAAAAAAAAAAAAAAAAAAAAAAAAAAAAAAAAAAAAAAAAAAAAAPAPBGBAACBEBFAPBPBIBCBAAAAAAAAAAAAAAAAAAAAAAAAAAAAAAAAAAAAAAAAAAAAAAAAAAAAAAAAAAAAAAAAAAAAAAAAAAACAC",
"ACACAAAAAAAAAAAAAAAAAAAAAAAAAAAAAAAAAAAAAAAAAAAAAAAAAAAAAAAAAAAAAAAAAAAAAAAAAAAAAAAAAAAAAAAAAAAAAAAAAAAAAAAAAAAAAAAAAAAAAAAAAAAAAAAAAAAAAAAAAAAAAAAAAAAAAAAAAAAAPBFAAAAAAAAANAPBPBPBPBPBBAGBHBAAAAAAAAAAAAAAAAAAAAAAAAAAAAAAAAAAAAAAAAAAAAAAAAAAAAAAAAAAAAAAAAACAC",
"ACACAAAAAAAAAAAAAAAAAAAAAAAAAAAAAAAAAAAAAAAAAAAAAAAAAAAAAAAAAAAAAAAAAAAAAAAAAAAAAAAAAAAAAAAAAAAAAAAAAAAAAAAAAAAAAAAAAAAAAAAAAAAAAAAAAAAAAAAAAAAAAAAAAAAAAAAAAAAABBPBNAAAAAAAAAHBBAFAPBPBPBPBPBIBPAAAAAAAAAAAAAAAAAAAAAAAAAAAAAAAAAAAAAAAAAAAAAAAAAAAAAAAAAAAAAACAC",
"ACACAAAAAAAAAAAAAAAAAAAAAAAAAAAAAAAAAAAAAAAAAAAAAAAAAAAAAAAAAAAAAAAAAAAAAAAAAAAAAAAAAAAAAAAAAAAAAAAAAAAAAAAAAAAAAAAAAAAAAAAAAAAAAAAAAAAAAAAAAAAAAAAAAAAAAAAAAAAACBFAPBNBAAAAAAAAAAAAAAAANBBBPBPBPBBBCBAAAAAAAAAAAAAAAAAAAAAAAAAAAAAAAAAAAAAAAAAAAAAAAAAAAAAAAAACAC",
"ACACAAAAAAAAAAAAAAAAAAAAAAAAAAAAAAAAAAAAAAAAAAAAAAAAAAAAAAAAAAAAAAAAAAAAAAAAAAAAAAAAAAAAAAAAAAAAAAAAAAAAAAAAAAAAAAAAAAAAAAAAAAAAAAAAAAAAAAAAAAAAAAAAAAAAAAAAAAAAAAHBPBFACBAAAAAAAAAAAAAAAAAADBBBPBPBFAPAAAAAAAAAAAAAAAAAAAAAAAAAAAAAAAAAAAAAAAAAAAAAAAAAAAAAAAACAC",
"ACACAAAAAAAAAAAAAAAAAAAAAAAAAAAAAAAAAAAAAAAAAAAAAAAAAAAAAAAAAAAAAAAAAAAAAAAAAAAAAAAAAAAAAAAAAAAAAAAAAAAAAAAAAAAAAAAAAAAAAAAAAAAAAAAAAAAAAAAAAAAAAAAAAAAAAAAAAAAAAAAANAPBBAAAAAAAAAPAPAAAAAAAAAAAPAFAPBPBNAAAAAAAAAAAAAAAAAAAAAAAAAAAAAAAAAAAAAAAAAAAAAAAAAAAAAACAC",
"ACACAAAAAAAAAAAAAAAAAAAAAAAAAAAAAAAAAAAAAAAAAAAAAAAAAAAAAAAAAAAAAAAAAAAAAAAAAAAAAAAAAAAAAAAAAAAAAAAAAAAAAAAAAAAAAAAAAAAAAAAAAAAAAAAAAAAAAAAAAAAAAAAAAAAAAAAAAAAAAAAAAABAPBPAAAAAAAGBPBNAAAAAAAAAAACBBBPBPBBBCBAAAAAAAAAAAAAAAAAAAAAAAAAAAAAAAAAAAAAAAAAAAAAAAAACAC",
"ACACAAAAAAAAAAAAAAAAAAAAAAAAAAAAAAAAAAAAAAAAAAAAAAAAAAAAAAAAAAAAAAAAAAAAAAAAAAAAAAAAAAAAAAAAAAAAAAAAAAAAAAAAAAAAAAAAAAAAAAAAAAAAAAAAAAAAAAAAAAAAAAAAAAAAAAAAAAAAAAAAAANBPBBBAAAAAAAAFABAAAAAAAAAAAAAAAEBPBPBIBCBAAAAAAAAAAAAAAAAAAAAAAAAAAAAAAAAAAAAAAAAAAAAAAACAC",
"ACACAAAAAAAAAAAAAAAAAAAAAAAAAAAAAAAAAAAAAAAAAAAAAAAAAAAAAAAAAAAAAAAAAAAAAAAAAAAAAAAAAAAAAAAAAAAAAAAAAAAAAAAAAAAAAAAAAAAAAAAAAAAAAAAAAAAAAAAAAAAAAAAAAAAAAAAAAAAAAAAAAAAAFAFAAAAAAAAAEBNAAAAAAAAAAAAAAAAANBFAPBIBCBAAAAAAAAAAAAAAAAAAAAAAAAAAAAAAAAAAAAAAAAAAAAACAC",
"ACACAAAAAAAAAAAAAAAAAAAAAAAAAAAAAAAAAAAAAAAAAAAAAAAAAAAAAAAAAAAAAAAAAAAAAAAAAAAAAAAAAAAAAAAAAAAAAAAAAAAAAAAAAAAAAAAAAAAAAAAAAAAAAAAAAAAAAAAAAAAAAAAAAAAAAAAAAAAAAAAAAAAABBPBPAAAAAAAAAAAAAAAAAAAAAAAAAAAAAHBPBPBBAAAAAAAAAAAAAAAAAAAAAAAAAAAAAAAAAAAAAAAAAAAAAACAC",
"ACACAAAAAAAAAAAAAAAAAAAAAAAAAAAAAAAAAAAAAAAAAAAAAAAAAAAAAAAAAAAAAAAAAAAAAAAAAAAAAAAAAAAAAAAAAAAAAAAAAAAAAAAAAAAAAAAAAAAAAAAAAAAAAAAAAAAAAAAAAAAAAAAAAAAAAAAAAAAAAAAAAAAANBPBGBAAAAAAAAAAAAAAAAAAAAAAAAAAAAAAEBPBPBNAAAAAAAAAAAAAAAAAAAAAAAAAAAAAAAAAAAAAAAAAAAACAC",
"ACACAAAAAAAAAAAAAAAAAAAAAAAAAAAAAAAAAAAAAAAAAAAAAAAAAAAAAAAAAAAAAAAAAAAAAAAAAAAAAAAAAAAAAAAAAAAAAAAAAAAAAAAAAAAAAAAAAAAAAAAAAAAAAAAAAAAAAAAAAAAAAAAAAAAAAAAAAAAAAAAAAAAAAAFAFAAAAAAAAAAAAAAAAAAAAAAAAAAAAAAAAANAPBPBPAAAAAAAAAAAAAAAAAAAAAAAAAAAAAAAAAAAAAAAAAACAC",
"ACACAAAAAAAAAAAAAAAAAAAAAAAAAAAAAAAAAAAAAAAAAAAAAAAAAAAAAAAAAAAAAAAAAAAAAAAAAAAAAAAAAAAAAAAAAAAAAAAAAAAAAAAAAAAAAAAAAAAAAAAAAAAAAAAAAAAAAAAAAAAAAAAAAAAAAAAAAAAAAAAAAAAAAANAPBNAAAAAAAAAAAAAAAAAAAAAAAAAAAAAAAAABAPBFACBAAAAAAAAAAAAAAAAAAAAAAAAAAAAAAAAAAAAAAACAC",
"ACACAAAAAAAAAAAAAAAAAAAAAAAAAAAAAAAAAAAAAAAAAAAAAAAAAAAAAAAAAAAAAAAAAAAAAAAAAAAAAAAAAAAAAAAAAAAAAAAAAAAAAAAAAAAAAAAAAAAAAAAAAAAAAAAAAAAAAAAAAAAAAAAAAAAAAAAAAAAAAAAAAAAAAACBFAFADBAAAAAAAAAAAAAAAAAAAAAAAAAAAAAADBFAPBBBAAAAAAAAAAAAAAAAAAAAAAAAAAAAAAAAAAAAAAACAC",
"ACACAAAAAAAAAAAAAAAAAAAAAAAAAAAAAAAAAAAAAAAAAAAAAAAAAAAAAAAAAAAAAAAAAAAAAAAAAAAAAAAAAAAAAAAAAAAAAAAAAAAAAAAAAAAAAAAAAAAAAAAAAAAAAAAAAAAAAAAAAAAAAAAAAAAAAAAAAAAAAAAAAAAAAAAANAPBIBCBAAAAAAAAAAAAAAAAAAAAAAAAAAAAAANAPBPBPAAAAAAAAAAAAAAAAAAAAAAAAAAAAAAAAAAAAAACAC",
"ACACAAAAAAAAAAAAAAAAAAAAAAAAAAAAAAAAAAAAAAAAAAAAAAAAAAAAAAAAAAAAAAAAAAAAAAAAAAAAAAAAAAAAAAAAAAAAAAAAAAAAAAAAAAAAAAAAAAAAAAAAAAAAAAAAAAAAAAAAAAAAAAAAAAAAAAAAAAAAAAAAAAAAAAAAAABBPBNAAAAAAAAAAAAAAAAAAAAAAAAAAAAAAAAAFAPBBAAAAAAAAAAAAAAAAAAAAAAAAAAAAAAAAAAAAAACAC",
"ACACAAAAAAAAAAAAAAAAAAAAAAAAAAAAAAAAAAAAAAAAAAAAAAAAAAAAAAAAAAAAAAAAAAAAAAAAAAAAAAAAAAAAAAAAAAAAAAAAAAAAAAAAAAAAAAAAAAAAAAAAAAAAAAAAAAAAAAAAAAAAAAAAAAAAAAAAAAAAAAAAAAAAAAAAAABBPBPAAAAAAAAAAAAAAAAAAAAAAAAAAAAAAAAAEBPBPBDBAAAAAAAAAAAAAAAAAAAAAAAAAAAAAAAAAAACAC",
"ACACAAAAAAAAAAAAAAAAAAAAAAAAAAAAAAAAAAAAAAAAAAAAAAAAAAAAAAAAAAAAAAAAAAAAAAAAAAAAAAAAAAAAAAAAAAAAAAAAAAAAAAAAAAAAAAAAAAAAAAAAAAAAAAAAAAAAAAAAAAAAAAAAAAAAAAAAAAAAAAAAAAAAAAAAAAIBFAAAAAAAAAAAAAAAAAAAAAAAAAAAAAAAAAAAAAFAPBNAAAAAAAAAAAAAAAAAAAAAAAAAAAAAAAAAAAACAC",
"ACACAAAAAAAAAAAAAAAAAAAAAAAAAAAAAAAAAAAAAAAAAAAAAAAAAAAAAAAAAAAAAAAAAAAAAAAAAAAAAAAAAAAAAAAAAAAAAAAAAAAAAAAAAAAAAAAAAAAAAAAAAAAAAAAAAAAAAAAAAAAAAAAAAAAAAAAAAAAAAAAAAAAAAAAADBPBBBAAAAAAAAAAAAAAAAAAAAAAAAAAAAAAAAAAAAGBPBFAAAAAAAAAAAAAAAAAAAAAAAAAAAAAAAAAAAACAC",
"ACACAAAAAAAAAAAAAAAAAAAAAAAAAAAAAAAAAAAAAAAAAAAAAAAAAAAAAAAAAAAAAAAAAAAAAAAAAAAAAAAAAAAAAAAAAAAAAAAAAAAAAAAAAAAAAAAAAAAAAAAAAAAAAAAAAAAAAAAAAAAAAAAAAAAAAAAAAAAAAAAAAAAAAAAAEBPBNBAAAAAAAAAAAAAAAAAAAAAAAAAAAAAAAAAAAADBPBPBEBAAAAAAAAAAAAAAAAAAAAAAAAAAAAAAAAACAC",
"ACACAAAAAAAAAAAAAAAAAAAAAAAAAAAAAAAAAAAAAAAAAAAAAAAAAAAAAAAAAAAAAAAAAAAAAAAAAAAAAAAAAAAAAAAAAAAAAAAAAAAAAAAAAAAAAAAAAAAAAAAAAAAAAAAAAAAAAAAAAAAAAAAAAAAAAAAAAAAAAAAAAAAAAAAANAPBDBAAAAAAAAAAAAAAAAAAAAAAAAAAAAAAAAAAAAAABBPBFAAAAAAAAAAAAAAAAAAAAAAAAAAAAAAAAAACAC",
"ACACAAAAAAAAAAAAAAAAAAAAAAAAAAAAAAAAAAAAAAAAAAAAAAAAAAAAAAAAAAAAAAAAAAAAAAAAAAAAAAAAAAAAAAAAAAAAAAAAAAAAAAAAAAAAAAAAAAAAAAAAAAAAAAAAAAAAAAAAAAAAAAAAAAAAAAAAAAAAAAAAAAAAAAAAGBPBAAAAAAAAAAAAAAAAAAAAAAAAAAAAAAAAAAAAAAAADBPBPBEBAAAAAAAAAAAAAAAAAAAAAAAAAAAAAAACAC",
"ACACAAAAAAAAAAAAAAAAAAAAAAAAAAAAAAAAAAAAAAAAAAAAAAAAAAAAAAAAAAAAAAAAAAAAAAAAAAAAAAAAAAAAAAAAAAAAAAAAAAAAAAAAAAAAAAAAAAAAAAAAAAAAAAAAAAAAAAAAAAAAAAAAAAAAAAAAAAAAAAAAAAAAAAAABAPBAAAAAAAAGBNBAAAAAAAAAAAAAAAAAAAAAAAAAAAAAABBPBFAAAAAAAAAAAAAAAAAAAAAAAAAAAAAAAACAC",
"ACACAAAAAAAAAAAAAAAAAAAAAAAAAAAAAAAAAAAAAAAAAAAAAAAAAAAAAAAAAAAAAAAAAAAAAAAAAAAAAAAAAAAAAAAAAAAAAAAAAAAAAAAAAAAAAAAAAAAAAAAAAAAAAAAAAAAAAAAAAAAAAAAAAAAAAAAAAAAAAAAAAAAAAAAABBPBAAAAAANBPBBBAAAAAAAAAAAAAAAAAAAAAAAAAAAAAAPAPBPBEBAAAAAAAAAAAAAAAAAAAAAAAAAAAAACAC",
"ACACAAHAHAHAHAHAHAAAAAAAAAAAAAAAAAAAAAAAAAAAAAAAAAAAAAAAAAAAAAAAAAAAAAAAAAAAAAAAAAAAAAAAAAAAAAAAAAAAAAAAAAAAAAAAAAAAHAABAAAAAAAAAAHAABAAAAAAAAAAAAAAAAAAAAAAAAAAAAAAAAAAAAAANAPBHBAAAAFAPBPBDBAAAAAAAAAAAAAAAAAAAAAAAAAAAAAABAPBIBAAAAAAAAAAAAAAAAAAAAAAAAAAAAACAC",
"ACACAAGAGAGAGAGAGAMBFBAAAAAAAAAAAAAAAAAAAAAAAAAAAAAAAAAAAAAAAAAAAAAAAAAAAAAAAAAAAAAAAAAAAAAAAAAAAAAAAAAAAAAAAAAAAAAAABGAAAAAAAAAAAABGAAAAAAAAAAAAAAAAAAAAAAAAAAAAAAAAAAAAAAAEBPBEBAADBPBPBPBGBAAAAAAAAAAAAAAAAAAAAAAAAAAAAAAPAPBPBNAAAAAAAAAAAAAAAAAAAAAAAAAAAACAC",
"ACACAAGAABAAAAAAHAGAKBAAAAAAHAHAFBAAAAAAAAAAAAAAAAAAAAAAAAAAAAAAAAAAHAEAAAAAAAAAAAAAEAHAAAAAAAEAHAAAAAAAAAAAAAEAHAAAABGAAAAAAAAAAAABGAAAEAHAFBAAAAAAAAAAAAAAAAAAAAAAAAAAAAAADBPBBAAAPAPBPBFAFADBAAAAAAAAAAAAAAAAAAAAAAAAAAAAAABAPBPBFANACBAAAAAAAAAAAAAAAAAAAAACAC",
"ACACAAGAABAAAAAAAAGAABAAKBGAGAGAGAIAAAIAGAEAAAEAGAMBAAAAABGAHAFBDAMBDAGADAEAAAABGAABGAGAAAHAGADAMBMBABAAAAFBDAGAGAGAIAGAAAAAAAAAAAABGAIAGAGAGAKBAADAGAAAAAAAIAGAFBAAAAAAAAAAAAIBPBDBNAPBIBEBPBBBAAAAAAAAAAAAAAAAAAAAAAAAAAAAAACBNAFAPBPBPBGBCBAAAAAAAAAAAAAAAAACAC",
"ACACAAGADAABABABDAGAEAEAGAIAFBAAABGAKBEAGAIAAAKBGAGAEAAADAMBAAIAMBFBAAFBDAMBAAABGAMBHAHAEAGAABAAAAKBGAKBAAIAGAHAAAHAMBGAAAAAAAAAAAABGAIAAAFBIAGAEAHAGAKBAAEAGAABAAAAAAAAAAAAAAEBPBBBGBPBBAAAFAPBHBAAAAAAAAAAAAAAAAAAAAAAAAAAAAAAAAAAHBBBFAPBFAPAAAAAAAAAAAAAAAACAC",
"ACACAAGAMBDADADADAHAAAABGAFBAAAAAADADAAADAMBAAMBIAMBIAEAGAABAAGAMBDADADAMBGAEAABGAEAAAAAABGADADADADAGAIAAAGAIAAAAAAAABGAAAAAAAAAAAABGAAAAAAAFBGAABAADAMBAAIAGAFBAAAAAAAAAAAAAAAABAPBPBPBNAAAHBPBBAAAAAAAAAAAAAAAAAAAAAAAAAAAAAAAAAAAAAAACBNAPBPBGBAAAAAAAAAAAAACAC",
"ACACAAGAABAAAAAAAAAAAAABGAFBAAAAAAMBIAAAKBGAKBGAHAABMBIAGAEAAAMBDAHAHAHAHAHAFBABGAAAAAAAABGAHAHAHAHAHAEAAAMBIAAAAAAAABGAAAAAAAAAAAABGAAAAAAAFBGAABAAHAGAKBGAIAAAAAAAAAAAAAAAAAAACBBBPBBACBAAAAEBPBNAAAAAAAAAAAAAAAAAAAAAAAAAAAAAAAAAAAAAAAAAHBIBPBBACBAAAAAAAAACAC",
"ACACAAGAABAAAAAAAAAAAAEAGAIAFBAAABGAKBAAFBGAGAMBAAEAGAGADAAAAAIAGAHAAAEAGADAAAABGAAAAAAAEAGAIAFBAAIAGAKBAAIAGAHAAAEAMBGAAAAAAAAAAAABGAIAAAFBIAGAEAAAAAMBGAGAEAAAAAAAAAAAAAAAAAAAAAAAAAAAAAAAAAAAEBFADBAAAAAAAAAAAAAAAAAAAAAAAAAAAAAAAAAAAAAAAACBGBPBFAHBAAAAAAACAC",
"ACACAAGAABAAAAAAAAAAAAAAKBGAGAGAGAIAAAAAAAIAGAIAAAAADAGAKBAAAAFBDAGAGAGADAEAAAABGAAAAAAAAAKBGAGAGAGAABAAAAFBDAGAGAMBDAGAAAAAAAAAAAABGAIAGAGAGAKBAAAAAAKBGAIAAAAAAAAAAAAAAAAAAAAAAAAAAAAAAAAAAAAAAAPABACBAAAAAAAAAAAAAAAAAAAAAAAAAAAAAAAAAAAAAAAAAAHBFAFACBAAAAACAC",
"ACACAAAAAAAAAAAAAAAAAAAAAAAAHAHAFBAAAAAAAAAAAAAAAAAAAAAAAAAAAAAAAAEAHAEAAAAAAAAAAAAAAAAAAAAAAAHAHAFBAAAAAAAAAAEAHAAAAAAAAAAAAAAAAAAAAAAAEAHAFBAAAAAAAAABGAEAAAAAAAAAAAAAAAAAAAAAAAAAAAAAAAAAAAAAAAAAHBBACBAAAAAAAAAAAAAAAAAAAAAAAAAAAAAANBBBFAPBPBPBPBPBBBAAAAACAC",
"ACACAAAAAAAAAAAAAAAAAAAAAAAAAAAAAAAAAAAAAAAAAAAAAAAAAAAAAAAAAAAAAAAAAAAAAAAAAAAAAAAAAAAAAAAAAAAAAAAAAAAAAAAAAAAAAAAAAAAAAAAAAAAAAAAAAAAAAAAAAAAAAAHAGAGAIAAAAAAAAAAAAAAAAAAAAAAAAAAAAAAAAAAAAAAAAAAAAADBNAAAAAAAAAAAAAAAAAAAAAAAAAAAAAFAPBPBPBPBBABANANBAAAAAAACAC",
"ACACAAAAAAAAAAAAAAAAAAAAAAAAAAAAAAAAAAAAAAAAAAAAAAAAAAAAAAAAAAAAAAAAAAAAAAAAAAAAAAAAAAAAAAAAAAAAAAAAAAAAAAAAAAAAAAAAAAAAAAAAAAAAAAAAAAAAAAAAAAAAAAFBHAEAAAAAAAAAAAAAAAAAAAAAAAAAAAAAAAAAAAAAAAAAAAAAAAAAAAAAAAAAAAAAAAAAAAAAAAAAAAAAAABBPBPBNAAAAAAAAAAAAAAAAAACAC",
"ACACAAAAAAAAAAAAAAAAAAAAAAAAAAAAAAAAAAAAAAAAAAAAAAAAAAAAAAAAAAAAAAAAAAAAAAAAAAAAAAAAAAAAAAAAAAAAAAAAAAAAAAAAAAAAAAAAAAAAAAAAAAAAAAAAAAAAAAAAAAAAAAAAAAAAAAAAAAAAAAAAAAAAAAAAAAAAAAAAAAAAAAAAAAAAAAAAAAAAAAAAAAAAAAAAAAAAAAAAAAAAAAAAAADBFAPBFAPAAAAAAAAAAAAAAAACAC",
"ACACAADBGBIBPBFABAHBAAAAAAAAAAAAAAAAAAAAAAAAAAAANAIBPBFABBEBAAAAAAAAAAAAAAAAAAAAAAAAAAAAAAAAAAAAAAAAAAAAAAAAAAAAAAAAAAAAOACACACACACACACACACACACACACACAOAAAAAAAAAAAJBCACACACACACACACACACACAKAJBAAAAAAAAAAOACACACACAAAAAAAAAAAAAAAAAAAAAAAHBFAPBPBBBCBAAAAAAAAAAACAC",
"ACACHBPBPBPBPBPBPBFAHBAAAAAAAAAAAAAAAAAAAAAAAABAPBPBPBPBPBPBGBAAAAAAAAAAAAAAAAAAAAAAAAAAAAAAAAAAAAAAAAAAAAAAAAAAAAAAKALAOBOBOBOBOBOBOBOBOBOBOBOBOBOBOBCAAAAAAAKALAOBOBOBOBOBOBOBOBOBOBOBOBOBOBLAKAAAAAAACAOBOBOBOBAAAAAAAAAAAAAAAAAAAAAAAADBBAPBPBFAPAAAAAAAAAACAC",
"ACACNAPBPBPBPBPBPBPBBAAAAAAAAAAAAAAAAAAAAAAANBPBPBPBPBPBPBPBPBAAAAAAAAAAAAAAAAAAAAAAAAAAAAAAAAAAAAAAAAAAAAAAAAAAAAKAOBOBOBOBOBOBOBOBOBOBOBOBOBOBOBOBOBCAAAAACAOBOBOBOBOBOBOBOBOBOBOBOBOBOBOBOBOBOBKAAAAACAOBOBOBOBAAAAAAAAAAAAAAAAAAAAAAAAAAAAEBFAPBPBEBAAAAAAACAC",
"ACACNAPBPBPBPBPBPBPBPBHBAAAAAAAAAAAAAAAAAAAABAPBPBPBPBPBPBPBPBAAAAAAAAAAAAAAAAAAAAAAAAAAAAAAAAAAAAAAAAAAAAAAAAAAAALAOBOBOBLALBCACACACACACACACACACACACAOAAAJBOBOBOBOBOBJACACACACACACACACAMALAOBOBOBLAFBAACAOBOBOBOBAAAAAAAAAAAAAAAAAAAAAAAAAAAAAAAAEBFAPBNBAAAAACAC",
"ACACNAPBPBPBIBFAPBPBPBBBAAAAAAAAAAAAAAAAAAHBPBPBPBPBBAPBPBPBPBAAAAAAAAAAAAAAAAAAAAAAAAAAAAAAAAAAAAAAAAAAAAAAAAAAAAOBOBOBOBKAAAAAAAAAAAAAAAAAAAAAAAAAAAAAAAOAOBOBOBOBMAAAAAAAAAAAAAAAAAAAAAJBOBOBOBOBOAAACAOBOBOBOBAAAAAAAAAAAAAAAAAAAAAAAAAAAAAAAAAAAANAFAHBAAACAC",
"ACACNAPBPBPBBABBPBPBPBPBCBAAAAAAAAAAAAAAAABBPBPBPBFANBPBPBPBPBAAAAAAAAAAAAAAAAAAAAAAAAAAAAAAAAAAAAAAAAAAAAAAAAAAAAOBOBOBOBOAAAAAAAAAAAAAAAAAAAAAAAAAAAAAAAOAOBOBOBOBOAAAAAAAAAAAAAAAAAAAAAAAJAOBOBOBOAAACAOBOBOBOBAAAAAAAAAAAAAAAAAAAAAAAAAAAAAAAAAAAAAAPAFAAAACAC",
"ACACNAPBPBPBBADBPBPBPBPBNAAAAAAAAAAAAAAADBPBPBPBPBGBPAPBPBPBPBAAAAAAGBBABABAEBAAAAAAAAAAAAAAAAAAAAEBBABABABAAAAAAAOBOBOBOBOAAAAAAAAAAAAAAAAAAAAAAAAAAAAAAAOAOBOBOBOBOAAAAAAAAAAAAAAAAAAAAAAAJAOBOBOBOAAACAOBOBOBOBAAAAAAAAAAAAAAAAAAAAAAAAAAAAAAAAAAAAAAAADBDBACAC",
"ACACNAPBPBPBBAAABBPBPBPBFAAAAAAAAAAAAAAAGBPBPBPBPBDBPAPBPBPBPBAAAAAABAPBPBPBNAAAAAAAAAAAAAAAAAAAAANAPBPBPBPBAAAAAAOBOBOBOBCAAAAAAAAAAAAAAAAAAAAAAAAAAAAAAAOAOBOBOBOBOAAAAAAAAAAAAAAAAAAAAAAAJAOBOBOBOAAACAOBOBOBOBAAAAAAAAAAAAAAAAAAAAAAAAAAAAAAAAAAAAAAAAAAAAACAC",
"ACACNAPBPBPBBAAAPAPBPBPBPBEBAAAAAAAAAACBFAPBPBPBBBAAPAPBPBPBPBAAAAAABAPBPBPBNAAAAAAAAAAAAAAAAAAAAANAPBPBPBPBAAAAAALAOBOBOBOBMACACACACACACACAOAJBAAAAAAAAAAOAOBOBOBOBOAAAAAAAAAAAAAAAAAAAAAAAJAOBOBOBOAAACAOBOBOBOBAAAAAAAAAAAAAAAAAAAAAAAAAAAAAAAAAAAAAAAAAAAAACAC",
"ACACNAPBPBPBBAAAAABAPBPBPBBAAAAAAAAAAANAPBPBPBPBPAAAPAPBPBPBPBAAAAAABAPBPBPBNAAAAAAAAAAAAAAAAAAAAANAPBPBPBPBAAAAAAJBLAOBOBOBOBOBOBOBOBOBOBOBOBOBJAOAAAAAAAOAOBOBOBOBOAAAAAAAAAAAAAAAAAAAAAAAJAOBOBOBOAAACAOBOBOBOBAAAAAAAAAAAAAAAAAAAAAAAAAAAAAAAAAAAAAAAAAAAAACAC",
"ACACNAPBPBPBBAAAAAEBPBPBPBPBPAAAAAAAAAFAPBPBPBBAAAAAPAPBPBPBPBAAAAAABAPBPBPBNAAAAAAAAAAAAAAAAAAAAANAPBPBPBPBAAAAAAAAFBCALAOBOBOBOBOBOBOBOBOBOBOBOBOBCAAAAAOAOBOBOBOBOAAAAAAAAAAAAAAAAAAAAAAAJAOBOBOBOAAACAOBOBOBOBAAAAAAAAAAAAAAAAAAAAAAAAAAAAAAAAAAAAAAAAAAAAACAC",
"ACACNAPBPBPBBAAAAAAAFAPBPBPBBBAAAAAAEBPBPBPBPBNBAAAAPAPBPBPBPBAAAAAABAPBPBPBNAAAAAAAAAAAAAAAAAAAAANAPBPBPBPBAAAAAAAAAAAAAAJBOAOAOAOAOAOAKALBLAOBOBOBOBJBAAOAOBOBOBOBOAAAAAAAAAAAAAAAAAAAAAAAJAOBOBOBOAAACAOBOBOBOBAAAAAAAAAAAAAAAAAAAAAAAAAAAAAAAAAAAAAAAAAAAAACAC",
"ACACNAPBPBPBBAAAAAAAEBPBPBPBPBDBAAAABAPBPBPBFAAAAAAAPAPBPBPBPBAAAAAABAPBPBPBNAAAAAAAAAAAAAAAAAAAAANAPBPBPBPBAAAAAAAAAAAAAAAAAAAAAAAAAAAAAAAAOAOBOBOBOBOAAAOAOBOBOBOBOAAAAAAAAAAAAAAAAAAAAAAAJAOBOBOBOAAACAOBOBOBOBAAAAAAAAAAAAAAAAAAAAAAAAAAAAAAAAAAAAAAAAAAAAACAC",
"ACACNAPBPBPBBAAAAAAACBFAPBPBPBNAAAPAPBPBPBPBEBAAAAAAPAPBPBPBPBAAAAAABAPBPBPBNAAAAAAAAAAAAAAAAAAAAANAPBPBPBPBAAAAAAAAAAAAAAAAAAAAAAAAAAAAAAAAAAOBOBOBOBOAAAOAOBOBOBOBOAAAAAOACACACACAKAAAAAAAJAOBOBOBOAAACAOBOBOBOBAAAAAAAAAAAAAAAAAAAAAAAAAAAAAAAAAAOACACAJBAAACAC",
"ACACNAPBPBPBBAAAAAAAAANAPBPBPBFAAABBPBPBPBFACBAAAAAAPAPBPBPBPBAAAAAABAPBPBPBNAAAAAAAAAAAAAAAAAAAAANAPBPBPBPBAAAAAAAAAAAAAAAAAAAAAAAAAAAAAAAAAAOBOBOBOBOAAAOAOBOBOBOBKAAAAAFBJAOBOBOBOBKAAAAAJAOBOBOBOAAACAOBOBOBOBAAAAAAAAAAAAAAAAAAAAAAAAAAAAAAAALBOBJAJALAJBACAC",
"ACACNAPBPBPBBAAAAAAAAADBPBPBPBPBNAPBPBPBPBNAAAAAAAAAPAPBPBPBPBAAAAAABAPBPBPBGBAAAAAAAAAAAAAAAAAAAANAPBPBPBPBAAAAAAAAAAAAAAAAAAAAAAAAAAAAAAAAOAOBOBOBOBOAAAOAOBOBOBOBMAAAAAAAFBJAOBOBOBOBCAJBOBOBOBOBOAAAKAOBOBOBOBJBAAAAAAAAAAAAAAAAAAAAAAAAAAAAJBLALBMAJALBJAACAC",
"ACACNAPBPBPBBAAAAAAAAAAABBPBPBPBPBPBPBPBPBCBAAAAAAAAPAPBPBPBPBAAAAAABBPBPBPBPBGBPAPAPAPAPAPAPAPAPABBPBPBPBPBAAAAJBCACACACACACACACACACACACALBLAOBOBOBOBJBAAJBOBOBOBOBOBJAKAOAOAOAJAOBOBOBOBOBOBOBOBOBFBAAJBOBOBOBOBLALBCACACACACACACACACACACACAAAOALBCAJAOBJBOBACAC",
"ACACNAPBPBPBBAAAAAAAAAAADBPBPBPBPBPBPBPBBBAAAAAAAAAAPAPBPBPBPBAAAAAACBIBPBPBPBPBPBPBPBPBPBPBPBPBPBPBPBPBPBPBAAAAOAOBOBOBOBOBOBOBOBOBOBOBOBOBOBOBOBOBLBAAAAAALBOBOBOBOBOBOBOBOBOBOBOBOBOBOBOBOBOBOBLBAAAAAACAOBOBOBOBOBOBOBOBOBOBOBOBOBOBOBOBOBAAOAJACAKALAJBLAACAC",
"ACACNAPBPBPBBAAAAAAAAAAAAAGBPBPBPBPBPBFADBAAAAAAAAAAPAPBPBPBPBAAAAAAAACBNAFAPBPBPBPBPBPBPBPBPBPBPBPBPBPBPBPBAAAAOAOBOBOBOBOBOBOBOBOBOBOBOBOBOBOBLAKAAAAAAAAAAACALAOBOBOBOBOBOBOBOBOBOBOBOBOBOBOBCAAAAAAAAAAAKALAOBOBOBOBOBOBOBOBOBOBOBOBOBOBOBAAAAJALAOALBLACAACAC",
"ACACPANANANAEBAAAAAAAAAAAAAANABABABABBDBAAAAAAAAAAAADBNANANANAAAAAAAAAAAAAAAPAEBNANANANANANANANANABAPBPBPBPBAAAAJBCACACACACACACACACACACACACACAJBAAAAAAAAAAAAAAAAAAKACAJAJAJAJAJAJALBCALBOBOBOBOBJAFBAAAAAAAAAAAAJBKACACACACACACACACACACACACACAAAAAFBLBJAJAKAAAACAC",
"ACACAAAAAAAAAAAAAAAAAAAAAAAAAAAAAAAAAAAAAAAAAAAAAAAAAAAAAAAAAAAAAAAAAAAAAAAAAAAAAAAAAAAAAAAAAAAAAANAPBPBPBPBAAAAAAAAAAAAAAAAAAAAAAAAAAAAAAAAAAAAAAAAAAAAAAAAAAAAAAAAAAAAAAAAAAAAAAAAAAAAKALAOBOBOBLAJBAAAAAAAAAAAAAAAAAAAAAAAAAAAAAAAAAAAAAAAAAAAAAAAAAAAAAAAAACAC",
"ACACAAAAAAAAAAAAAAAAAAAAAAAAAAAAAAAAAAAAAAAAAAAAAAAAAAAAAAAAAAAAAAAAAAAAAAAAAAAAAAAAAAAAAAAAAAAACBBAPBPBPBFAAAAAAAAAAAAAAAAAAAAAAAAAAAAAAAAAAAAAAAAAAAAAAAAAAAAAAAAAAAAAAAAAAAAAAAAAAAAAAAJBLAOBOBOBLAJBAAAAAAAAAAAAAAAAAAAAAAAAAAAAAAAAAAAAAAAAAAAAAAAAAAAAAAACAC",
"ACACAAAAAAAAAAAAAAAAAAAAAAAAAAAAAAAAAAAAAAAAAAAAAAAAAAAAAAAAAAAAAAAAGBBABABABABABABABABABABABABAFAPBPBPBPBBBAAAAAAAAAAAAAAAAAAAAAAAAAAAAAAAAAAAAAAAAAAAAAAAAAAAAAAAAAAAAAAAAAAAAAAAAAAAAAAAAJBCACACACAKAAAAAAAAAAAAAAAAAAAAAAAAAAAAAAAAAAAAAAAAAAAAAAAAAAAAAAAACAC",
"ACACAAAAAAAAAAAAAAAAAAAAAAAAAAAAAAAAAAAAAAAAAAAAAAAAAAAAAAAAAAAAAAAABAPBPBPBPBPBPBPBPBPBPBPBPBPBPBPBPBPBIBCBAAAAAAAAAAAAAAAAAAAAAAAAAAAAAAAAAAAAAAAAAAAAAAAAAAAAAAAAAAAAAAAAAAAAAAAAAAAAAAAAAAAAAAAAAAAAAAAAAAAAAAAAAAAAAAAAAAAAAAAAAAAAAAAAAAAAAAAAAAAAAAAAAAACAC",
"ACACAAAAAAAAAAAAAAAAAAAAAAAAAAAAAAAAAAAAAAAAAAAAAAAAAAAAAAAAAAAAAAAABAPBPBPBPBPBPBPBPBPBPBPBPBPBPBPBIBEBAAAAAAAAAAAAAAAAAAAAAAAAAAAAAAAAAAAAAAAAAAAAAAAAAAAAAAAAAAAAAAAAAAAAAAAAAAAAAAAAAAAAAAAAAAAAAAAAAAAAAAAAAAAAAAAAAAAAAAAAAAAAAAAAAAAAAAAAAAAAAAAAAAAAAAACAC",
"ACACACACACACACACACACACACACACACACACACACACACACACACACACACACACACACACACACACACACACACACACACACACACACACACACACACACACACACACACACACACACACACACACACACACACACACACACACACACACACACACACACACACACACACACACACACACACACACACACACACACACACACACACACACACACACACACACACACACACACACACACACACACACACACACAC",
"ACACACACACACACACACACACACACACACACACACACACACACACACACACACACACACACACACACACACACACACACACACACACACACACACACACACACACACACACACACACACACACACACACACACACACACACACACACACACACACACACACACACACACACACACACACACACACACACACACACACACACACACACACACACACACACACACACACACACACACACACACACACACACACACACAC"};
