<svg xmlns="http://www.w3.org/2000/svg" height="20" width="20"><path d="M10 9q-3.062 0-5.031-.844Q3 7.312 3 6q0-1.229 2.062-2.115Q7.125 3 10 3q2.875 0 4.938.885Q17 4.771 17 6q0 1.312-1.969 2.156Q13.062 9 10 9Zm0 4q-2.979 0-4.99-.865Q3 11.271 3 10V8.042q0 .604.562 1.135.563.531 1.521.938.959.406 2.229.645Q8.583 11 10 11q1.417 0 2.688-.24 1.27-.239 2.229-.645.958-.407 1.521-.938Q17 8.646 17 8.042V10q0 1.271-2.01 2.135Q12.979 13 10 13Zm0 4q-2.917 0-4.958-.906Q3 15.188 3 13.896v-1.958q0 .604.573 1.156.573.552 1.542.979.968.427 2.239.677Q8.625 15 10 15t2.646-.25q1.271-.25 2.239-.677.969-.427 1.542-.979.573-.552.573-1.156v1.958q0 1.292-2.042 2.198Q12.917 17 10 17Z" style="fill:#000000"/></svg>