<svg xmlns="http://www.w3.org/2000/svg" height="24" width="24"> <path d="m 15.731293,8.2687066 q 0.275,-0.275 0.725,-0.275 0.45,0 0.725,0.275 l 3.075,3.0750004 q 0.15,0.15 0.213,0.325 0.062,0.175 0.062,0.375 0,0.2 -0.062,0.388 -0.063,0.187 -0.213,0.312 l -3.1,3.1 q -0.275,0.275 -0.712,0.262 -0.438,-0.012 -0.713,-0.287 -0.275,-0.275 -0.275,-0.725 0,-0.45 0.275,-0.725 l 2.325,-2.325 -2.35,-2.3500004 q -0.275,-0.275 -0.263,-0.712 0.013,-0.438 0.288,-0.713 z M 3.4812934,12.043707 q 0,-0.2 0.075,-0.375 0.075,-0.175 0.2,-0.325 l 3.075,-3.0750004 q 0.275,-0.275 0.725,-0.275 0.45,0 0.725,0.275 0.275,0.275 0.275,0.725 0,0.45 -0.275,0.725 l -2.325,2.3250004 2.35,2.35 q 0.275,0.275 0.262,0.712 -0.012,0.438 -0.287,0.713 -0.275,0.275 -0.725,0.275 -0.45,0 -0.725,-0.275 l -3.075,-3.075 q -0.125,-0.125 -0.2,-0.312 -0.075,-0.188 -0.075,-0.388 z"/></svg>
