<svg xmlns="http://www.w3.org/2000/svg" height="24" width="24"><path d="M5 4v6.025V10v10V4v5Zm3 10h2.5q.225-.575.55-1.075.325-.5.75-.925H8q-.425 0-.713.287Q7 12.575 7 13t.287.712Q7.575 14 8 14Zm0 4h2.175q-.125-.5-.162-1-.038-.5.012-1H8q-.425 0-.713.288Q7 16.575 7 17t.287.712Q7.575 18 8 18Zm-3 4q-.825 0-1.413-.587Q3 20.825 3 20V4q0-.825.587-1.413Q4.175 2 5 2h7.175q.4 0 .763.15.362.15.637.425l4.85 4.85q.275.275.425.637.15.363.15.763V10.5q-.475-.2-.975-.312-.5-.113-1.025-.163V9h-4q-.425 0-.712-.288Q12 8.425 12 8V4H5v16h6.025q.4.6.9 1.113.5.512 1.1.887Zm11.5-3q1.05 0 1.775-.725Q19 17.55 19 16.5q0-1.05-.725-1.775Q17.55 14 16.5 14q-1.05 0-1.775.725Q14 15.45 14 16.5q0 1.05.725 1.775Q15.45 19 16.5 19Zm5.8 3.3q-.275.275-.7.275-.425 0-.7-.275l-2-2q-.525.35-1.137.525Q17.15 21 16.5 21q-1.875 0-3.188-1.312Q12 18.375 12 16.5q0-1.875 1.312-3.188Q14.625 12 16.5 12q1.875 0 3.188 1.312Q21 14.625 21 16.5q0 .65-.175 1.262-.175.613-.525 1.138l2 2q.275.275.275.7 0 .425-.275.7Z"/></svg>