/* XPM */
static char * Fish_sml_xpm[] = {
"32 32 143 2",
"  	c None",
". 	c #000000",
"+ 	c #9E9E9E",
"@ 	c #161616",
"# 	c #C1C1C1",
"$ 	c #E7E7E7",
"% 	c #919191",
"& 	c #626262",
"* 	c #404040",
"= 	c #606060",
"- 	c #8A8A8A",
"; 	c #EFEFEF",
"> 	c #A2A2A2",
", 	c #6F6F6F",
"' 	c #BABABA",
") 	c #ACACAC",
"! 	c #CFCFCF",
"~ 	c #464646",
"{ 	c #767676",
"] 	c #EBEBEB",
"^ 	c #D5D5D5",
"/ 	c #F5F5F5",
"( 	c #F8F8F8",
"_ 	c #FCFCFC",
": 	c #D3D3D3",
"< 	c #828282",
"[ 	c #5D5D5D",
"} 	c #424242",
"| 	c #010101",
"1 	c #878787",
"2 	c #FFFFFF",
"3 	c #F9F9F9",
"4 	c #CACACA",
"5 	c #727272",
"6 	c #101010",
"7 	c #BFBFBF",
"8 	c #FAFAFA",
"9 	c #F0F0F0",
"0 	c #D1D1D1",
"a 	c #474747",
"b 	c #020202",
"c 	c #434343",
"d 	c #C9C9C9",
"e 	c #AFAFAF",
"f 	c #E2E2E2",
"g 	c #DADADA",
"h 	c #8E8E8E",
"i 	c #3A3A3A",
"j 	c #0A0A0A",
"k 	c #282828",
"l 	c #8D8D8D",
"m 	c #EDEDED",
"n 	c #FDFDFD",
"o 	c #717171",
"p 	c #5A5A5A",
"q 	c #C4C4C4",
"r 	c #BCBCBC",
"s 	c #959595",
"t 	c #121212",
"u 	c #313131",
"v 	c #DEDEDE",
"w 	c #FBFBFB",
"x 	c #FEFEFE",
"y 	c #ECECEC",
"z 	c #B7B7B7",
"A 	c #5E5E5E",
"B 	c #575757",
"C 	c #7A7A7A",
"D 	c #A6A6A6",
"E 	c #BDBDBD",
"F 	c #6D6D6D",
"G 	c #0C0C0C",
"H 	c #F3F3F3",
"I 	c #2E2E2E",
"J 	c #171717",
"K 	c #232323",
"L 	c #383838",
"M 	c #4C4C4C",
"N 	c #4B4B4B",
"O 	c #272727",
"P 	c #0F0F0F",
"Q 	c #111111",
"R 	c #030303",
"S 	c #0B0B0B",
"T 	c #D2D2D2",
"U 	c #E9E9E9",
"V 	c #9C9C9C",
"W 	c #1F1F1F",
"X 	c #ABABAB",
"Y 	c #999999",
"Z 	c #B5B5B5",
"` 	c #C2C2C2",
" .	c #7C7C7C",
"..	c #9A9A9A",
"+.	c #D6D6D6",
"@.	c #EEEEEE",
"#.	c #797979",
"$.	c #080808",
"%.	c #6E6E6E",
"&.	c #A7A7A7",
"*.	c #B1B1B1",
"=.	c #E5E5E5",
"-.	c #BEBEBE",
";.	c #F2F2F2",
">.	c #040404",
",.	c #B6B6B6",
"'.	c #F7F7F7",
").	c #9B9B9B",
"!.	c #353535",
"~.	c #D7D7D7",
"{.	c #EAEAEA",
"].	c #B0B0B0",
"^.	c #4D4D4D",
"/.	c #F6F6F6",
"(.	c #333333",
"_.	c #444444",
":.	c #8C8C8C",
"<.	c #F4F4F4",
"[.	c #6C6C6C",
"}.	c #898989",
"|.	c #E4E4E4",
"1.	c #292929",
"2.	c #393939",
"3.	c #B9B9B9",
"4.	c #8B8B8B",
"5.	c #3C3C3C",
"6.	c #787878",
"7.	c #CCCCCC",
"8.	c #D9D9D9",
"9.	c #737373",
"0.	c #676767",
"a.	c #202020",
"b.	c #747474",
"c.	c #C5C5C5",
"d.	c #E1E1E1",
"e.	c #949494",
"f.	c #0E0E0E",
"g.	c #343434",
"h.	c #545454",
"i.	c #7B7B7B",
"j.	c #969696",
"k.	c #525252",
"l.	c #1B1B1B",
"            .                                                   ",
"            . .                                                 ",
"            . .                                                 ",
"              . . .                                             ",
"                . . . .       +         @                       ",
"                    . .     # $ %   & * =   .                   ",
"                      . .   - ; > , ' ) ! + ~                   ",
"                      . .   { ] $ ^ / ( _ ; : < [ }             ",
"  . . .                 |   1 ; 2 2 2 2 2 2 2 3 3 4 5           ",
"  . . . .             . 6 & 7 8 2 2 2 2 2 2 2 2 9 / 0 { a       ",
"  . . . . . .         b c d 8 2 2 2 2 2 2 2 2 2 + e f g h i     ",
"    . . . . . . .   j k l m 2 2 2 2 2 2 2 2 2 n o p > q r s ~ t ",
"          . .   . b u + v w 2 2 2 2 2 2 2 x y z A B C D E ' F 6 ",
"  . . .   . . . . G 5 H n 2 2 2 2 2 2 2 n 0 5 I @ J K L M N O   ",
"  . . . . . . . . P < 2 2 2 2 x n 3 x x g & Q |   .   | R R     ",
"    . . . .       S { 2 2 ( 9 T U g _ 3 V W       .     .       ",
"      . .         j 5 2 2 X Y Z : ` 2 9  .                      ",
"  . .             j 5 2 2 + ..E +.7 _ @.#.                      ",
"  . . .           $.%.2 2 V &.*.=.-.;.;.<                       ",
"  . . . . . . . . >.A 3 2 &.z ,.w U '.8 ).                      ",
"        . .       | !.r / +.~.{.2 2 2 x ].                      ",
"        . .       . j ^.q /.3 x 2 2 2 2 E                       ",
"  . . . . . . . . .   (.../ 2 2 2 2 2 2 T _.                    ",
"  . . . . . . .         :.; 2 2 2 2 2 2 <.[.                    ",
"  . . . . .           k }.9 2 2 2 2 2 2 2 |.C 1.t     . .       ",
"  . . .               2.3.8 2 2 2 2 2 2 2 x ] 3.4., 1.. .       ",
"  . .                 M r 3 2 2 2 2 2 2 2 2 2 x H 7 5..         ",
"                        6.7.3 2 2 2 2 2 2 2 2 2 8., Q           ",
"                          9.' H 2 2 2 2 2 2 8 : 0.a.            ",
"                            5.b.c.d.;.8 '.8.e.~ f.              ",
"                              f.g.h.i.j.4.k.l.                  ",
"                                      t P                       "};
